<?xml version="1.0" standalone="no"?>
<!DOCTYPE svg PUBLIC "-//W3C//DTD SVG 20010904//EN"
 "http://www.w3.org/TR/2001/REC-SVG-20010904/DTD/svg10.dtd">
<svg version="1.0" xmlns="http://www.w3.org/2000/svg"
 width="700.000000pt" height="700.000000pt" viewBox="0 0 700.000000 700.000000"
 preserveAspectRatio="xMidYMid meet">
<metadata>
Created by potrace 1.11, written by Peter Selinger 2001-2013
</metadata>
<g transform="translate(0.000000,700.000000) scale(0.100000,-0.100000)"
fill="#000000" stroke="none">
<path d="M3330 6947 c-3 -3 -45 -8 -95 -11 -49 -4 -101 -9 -115 -10 -14 -2
-63 -9 -110 -16 -47 -6 -101 -15 -120 -20 -19 -5 -48 -11 -65 -13 -55 -9 -238
-58 -350 -94 -1019 -330 -1836 -1130 -2187 -2143 -50 -145 -102 -336 -123
-447 -2 -15 -9 -49 -14 -77 -11 -56 -17 -93 -26 -176 -3 -30 -8 -68 -10 -85
-3 -16 -8 -107 -11 -201 -6 -153 -5 -173 11 -198 10 -15 27 -32 39 -38 15 -8
229 -13 745 -15 399 -2 727 -5 729 -7 4 -4 -18 -88 -118 -461 -34 -126 -63
-237 -65 -245 -5 -23 -93 -348 -110 -405 -9 -27 -17 -61 -20 -74 -2 -14 -25
-99 -50 -190 -24 -91 -77 -285 -116 -431 -39 -146 -72 -266 -74 -268 -5 -6
-108 115 -190 223 -261 346 -453 750 -554 1164 -35 143 -43 159 -85 176 -45
19 -86 10 -119 -25 -31 -35 -34 -66 -12 -155 9 -33 17 -68 19 -77 14 -56 50
-176 75 -249 229 -677 678 -1278 1266 -1695 128 -91 132 -94 292 -185 324
-186 721 -331 1080 -394 48 -8 99 -17 113 -20 14 -3 56 -8 94 -11 38 -3 79 -8
90 -11 37 -9 518 -12 596 -3 41 4 102 11 135 14 88 9 325 53 440 82 107 27
374 115 440 144 22 10 74 33 115 50 425 182 898 537 1212 911 108 129 131 158
206 268 289 419 489 909 566 1391 3 19 8 45 10 57 3 12 8 53 11 90 4 37 9 79
11 93 2 14 7 98 11 188 7 177 3 197 -46 229 -24 16 -89 17 -771 21 -409 2
-747 5 -749 8 -3 3 -31 101 -46 165 -4 18 -77 298 -175 674 -145 554 -282
1081 -285 1095 -2 8 -11 42 -20 75 -25 92 -105 404 -106 413 -1 8 -27 -86
-183 -668 -8 -30 -24 -91 -36 -135 -12 -44 -23 -87 -25 -95 -2 -8 -17 -64 -34
-125 -56 -210 -222 -831 -247 -925 -14 -52 -33 -124 -44 -160 -10 -36 -33
-120 -50 -187 -25 -91 -37 -123 -49 -124 -9 0 -86 -1 -171 0 -85 0 -318 0
-517 0 l-363 1 -6 28 c-4 15 -45 169 -91 342 -47 173 -87 322 -89 330 -7 29
-22 86 -47 180 -31 112 -57 209 -62 230 -4 17 -241 899 -275 1025 -12 44 -32
120 -45 169 -14 49 -26 90 -28 92 -2 2 -27 -85 -56 -193 -29 -109 -79 -295
-111 -413 -32 -118 -92 -345 -134 -505 -43 -159 -81 -301 -86 -315 -5 -14 -38
-140 -75 -280 -36 -140 -70 -266 -75 -280 -5 -14 -30 -106 -55 -205 -26 -99
-51 -184 -55 -190 -5 -6 -99 -9 -252 -8 -133 1 -443 2 -686 2 l-444 1 6 98 c4
53 8 108 10 122 3 14 7 52 11 85 6 52 20 143 40 250 4 17 17 75 31 130 142
562 437 1080 849 1490 142 141 225 212 400 342 166 124 434 273 640 356 149
60 373 135 450 151 11 3 43 10 70 16 77 18 253 48 320 55 33 4 89 11 125 15
69 9 558 6 600 -3 14 -3 50 -8 81 -12 31 -3 65 -7 75 -9 11 -2 42 -7 69 -11
28 -5 52 -9 55 -10 3 0 21 -4 40 -8 19 -4 46 -10 60 -13 14 -3 43 -9 65 -14
180 -38 492 -157 715 -272 295 -151 556 -343 795 -583 160 -160 165 -166 266
-295 282 -362 485 -780 593 -1227 29 -119 38 -138 74 -156 43 -22 93 -13 125
23 35 39 35 67 -3 211 -117 459 -313 867 -593 1238 -256 338 -597 645 -965
867 -133 81 -418 220 -537 264 -49 18 -99 36 -110 40 -170 67 -515 144 -780
175 -63 7 -549 17 -555 12z m-826 -2302 c91 -341 170 -636 176 -655 12 -39
100 -372 100 -377 0 -5 -879 2 -883 7 -2 3 8 50 23 105 49 175 101 369 105
385 2 8 58 220 126 470 67 250 136 508 152 572 17 65 32 117 33 115 1 -1 77
-281 168 -622z m2266 340 c28 -110 63 -243 77 -295 13 -52 26 -102 28 -110 2
-8 13 -49 24 -90 36 -136 103 -395 106 -412 2 -9 13 -50 24 -90 11 -40 36
-136 56 -213 20 -77 38 -147 41 -156 4 -15 -35 -16 -436 -15 -242 1 -440 5
-440 10 0 4 12 51 26 102 14 52 27 102 29 112 2 9 27 100 54 202 127 470 152
566 156 580 2 8 37 141 78 295 42 154 81 300 88 325 l12 45 12 -45 c7 -25 36
-135 65 -245z m-1929 -1605 c5 -8 49 -170 100 -360 50 -190 102 -384 115 -431
14 -47 26 -95 28 -105 3 -10 46 -172 96 -359 132 -490 230 -857 235 -878 4
-18 82 -308 91 -340 3 -10 8 -17 10 -14 2 2 22 71 44 153 22 82 51 190 64 239
34 125 377 1405 382 1424 4 18 62 236 132 496 l49 180 497 0 c274 0 500 -3
502 -6 2 -3 15 -50 29 -105 82 -313 107 -411 110 -424 2 -8 35 -134 73 -280
131 -498 193 -735 197 -750 1 -8 22 -87 45 -175 23 -88 58 -222 77 -298 l36
-139 -39 -37 c-21 -20 -80 -73 -131 -117 -406 -359 -932 -620 -1465 -728 -250
-51 -410 -65 -698 -61 -140 1 -264 5 -275 8 -11 2 -51 8 -90 12 -38 4 -113 15
-165 25 -52 10 -106 21 -120 24 -263 51 -697 220 -922 358 -20 13 -60 37 -90
54 -83 49 -322 223 -382 279 -6 6 -41 36 -77 68 -65 56 -67 59 -58 90 8 29
104 388 194 727 42 159 208 776 287 1070 33 124 72 268 85 322 l25 96 501 -2
c428 -1 501 -4 508 -16z m1135 7 c6 -1 -10 -77 -42 -197 -29 -107 -55 -204
-58 -215 -4 -18 -28 -108 -172 -645 -53 -196 -53 -195 -58 -218 -8 -34 -128
-477 -131 -480 -2 -2 -102 360 -110 401 -2 9 -15 59 -29 110 -27 96 -85 311
-91 337 -14 57 -222 828 -241 892 -3 11 2 17 18 20 25 3 896 -1 914 -5z m2438
-7 l278 0 -6 -97 c-40 -629 -264 -1232 -642 -1733 -89 -118 -131 -166 -136
-160 -3 3 -19 61 -36 130 -37 143 -89 345 -167 640 -30 113 -70 268 -90 345
-74 286 -158 609 -187 715 -11 41 -21 83 -23 93 -2 10 -7 27 -10 38 -4 10 -4
22 -2 27 3 4 171 6 374 5 202 -1 493 -2 647 -3z"/>
</g>
</svg>
