<?xml version="1.0" encoding="UTF-8"?>
<svg viewBox="0 0 139 126" preserveAspectRatio="xMinYMin meet" version="1.1" xmlns="http://www.w3.org/2000/svg">
    <g id="Icon" stroke="none" stroke-width="1" fill="none" fill-rule="evenodd">
        <g id="Artboard" fill="#EA4335" fill-rule="nonzero">
            <g id="Endorsed_Logo">
                <path d="M138.498396,62.3138063 C139.148623,66.5329703 136.547715,70.4275832 131.996124,71.7257875 C127.769647,102.233588 101.435445,125.925817 69.5743117,125.925817 C45.8410184,125.925817 25.0337477,112.619223 14.3049987,92.8216073 L13.6547715,92.8216073 C9.42829457,93.4707094 5.2018177,90.8743009 4.55159048,86.6551369 L0.650227212,64.9102149 C-3.57491814e-14,60.6910509 2.60090885,56.471887 7.15249933,55.8227848 C10.728749,24.3413306 37.3880647,0 69.8994253,0 C94.2829457,0 115.41533,13.9556962 126.144079,34.4024139 C130.045442,33.7533117 133.946806,36.3497203 134.597033,40.5688843 L138.498396,62.3138063 Z M69.8994253,3.24551074 C39.3387463,3.24551074 14.3049987,25.964086 10.0785218,55.1736827 L32.8364742,50.9545187 C38.0382919,35.3760671 52.3432906,24.3413306 69.5743117,24.3413306 C81.9286287,24.3413306 92.6573777,30.1832499 99.809877,38.9461289 L122.567829,34.726965 C112.489308,15.9030026 92.6573777,3.24551074 69.8994253,3.24551074 Z M69.8994253,122.355755 C99.809877,122.355755 124.518511,100.610833 129.395215,71.7257875 L106.312149,75.9449514 C100.785218,90.5497498 86.8053328,100.935384 70.2245389,100.935384 C58.5204491,100.935384 48.1168137,95.742567 40.9643144,87.6287901 L17.8812483,91.8479541 C27.9597701,110.022814 47.4665865,122.355755 69.8994253,122.355755 Z M6.21207884,65.9359568 L9.42692177,81.0606037 L19.1810347,78.987303 L18.3375602,75.0190673 L13.7775124,75.9883354 L13.4063836,74.2423117 L17.7225786,73.3248761 L16.9224827,69.5607211 L12.6062877,70.4781567 L12.2496185,68.8001599 L16.6389693,67.8671746 L15.7954948,63.8989389 L6.21207884,65.9359568 Z M19.4054349,63.9614757 L22.6202778,79.0861225 L27.7168018,78.0028229 L26.4829191,72.197861 L32.1793085,77.0542878 L36.4711182,76.1420355 L33.2562753,61.0173887 L28.1597513,62.1006883 L29.3984539,67.9283258 L23.6728593,63.0544066 L19.4054349,63.9614757 Z M40.1779993,76.3180304 L44.6892765,75.3591288 C46.2174285,75.0343101 47.5443845,74.5824077 48.6701844,74.003408 C49.7959843,73.4244084 50.70188,72.7302067 51.3878987,71.9207822 C52.0739174,71.1113576 52.5319101,70.1884622 52.7618906,69.1520682 C52.9918712,68.1156742 52.9751183,66.9776905 52.7116316,65.7380831 C52.4481449,64.4984757 52.0005898,63.4520619 51.3689527,62.5988104 C50.7373156,61.7455589 49.943543,61.0887344 48.9876111,60.6283172 C48.0316793,60.1679 46.9225484,59.9059554 45.6601853,59.8424755 C44.3978222,59.7789957 43.0025856,59.9096632 41.4744336,60.2344819 L36.9631563,61.1933835 L40.1779993,76.3180304 Z M44.4566488,70.9075627 L43.0733506,64.3996562 C44.2926208,64.1404923 45.29174,64.2046216 46.0707383,64.5920461 C46.8497365,64.9794706 47.3565117,65.7249481 47.5910791,66.8285011 C47.8256465,67.9320541 47.6667007,68.822985 47.1142368,69.5013205 C46.5617728,70.1796561 45.675919,70.6483988 44.4566488,70.9075627 Z M55.6997432,66.1388046 C55.9310974,67.2272404 56.3731248,68.2076794 57.0258387,69.0801512 C57.6785526,69.9526229 58.4673147,70.6658121 59.3921486,71.2197403 C60.3169826,71.7736685 61.3437883,72.1479113 62.4725967,72.3424802 C63.601405,72.537049 64.7510417,72.5099351 65.9215411,72.2611378 C67.0920405,72.0123405 68.153314,71.5695109 69.1053935,70.9326357 C70.057473,70.2957605 70.8432884,69.5362331 71.4628634,68.6540307 C72.0824384,67.7718283 72.5129282,66.799479 72.7543458,65.7369538 C72.9957634,64.6744285 73.000795,63.5989641 72.7694408,62.5105283 C72.5380867,61.4220925 72.0960593,60.4416535 71.4433454,59.5691817 C70.7906315,58.69671 70.0018694,57.9835208 69.0770354,57.4295926 C68.1522015,56.8756644 67.1253957,56.5014216 65.9965873,56.3068527 C64.867779,56.1122839 63.7181424,56.1393978 62.547643,56.3881951 C61.3771435,56.6369924 60.31587,57.079822 59.3637906,57.7166972 C58.4117111,58.3535724 57.6258956,59.1130998 57.0063207,59.9953022 C56.3867457,60.8775046 55.9562558,61.8498539 55.7148383,62.9123791 C55.4734207,63.9749044 55.468389,65.0503688 55.6997432,66.1388046 Z M60.8206525,65.0503217 C60.7274682,64.6119239 60.7293202,64.1809823 60.8262085,63.757484 C60.9230969,63.3339856 61.0954535,62.9458017 61.3432835,62.5929208 C61.5911135,62.2400398 61.9046268,61.9364016 62.2838329,61.6819971 C62.663039,61.4275926 63.0883612,61.2502879 63.5598124,61.1500779 C64.0312635,61.0498679 64.491931,61.0388496 64.9418287,61.1170226 C65.3917263,61.1951957 65.8016358,61.3450656 66.1715694,61.5666369 C66.541503,61.7882082 66.8568471,62.072728 67.1176114,62.420205 C67.3783756,62.767682 67.5553472,63.1606134 67.6485315,63.5990112 C67.7417159,64.037409 67.7398639,64.4683506 67.6429755,64.8918489 C67.5460871,65.3153473 67.3737306,65.7035312 67.1259006,66.0564121 C66.8780706,66.4092931 66.5645572,66.7129313 66.1853511,66.9673358 C65.806145,67.2217403 65.3808228,67.399045 64.9093716,67.499255 C64.4379205,67.599465 63.977253,67.6104833 63.5273554,67.5323103 C63.0774577,67.4541372 62.6675482,67.3042673 62.2976147,67.082696 C61.9276811,66.8611247 61.6123369,66.5766049 61.3515727,66.2291279 C61.0908084,65.8816509 60.9138368,65.4887195 60.8206525,65.0503217 Z M74.5114135,55.2453285 L77.7262564,70.3699753 L82.9203216,69.2659427 L82.1057662,65.4337608 L85.3588498,68.7476175 L91.4551704,67.4518046 L87.3466421,63.1110719 C87.695227,62.752575 87.9903121,62.3422544 88.2319062,61.8800978 C88.4343693,61.4736592 88.5931651,60.9817083 88.7082984,60.4042303 C88.8234317,59.8267523 88.8006674,59.1600942 88.6400047,58.404236 C88.4375698,57.4518547 88.0755459,56.6479594 87.5539221,55.9925261 C87.0322983,55.3370928 86.3933386,54.829061 85.6370238,54.4684153 C84.880709,54.1077696 84.0322502,53.893117 83.0916219,53.824451 C82.1509936,53.7557849 81.1604723,53.8320274 80.1200284,54.0531806 L74.5114135,55.2453285 Z M81.3793359,61.5535794 L80.6659974,58.1975858 L80.9342356,58.14057 C81.5519991,58.0092603 82.1035897,58.0263155 82.5890238,58.191736 C83.0744579,58.3571566 83.3814354,58.7422043 83.5099655,59.3468909 C83.6384956,59.9515774 83.5146707,60.4281951 83.1384872,60.7767581 C82.7623037,61.1253211 82.2653376,61.3652539 81.647574,61.4965636 L81.3793359,61.5535794 Z M92.8392182,63.0346059 L93.8031891,67.5697324 C94.2158483,67.5926201 94.6659299,67.5917518 95.1534473,67.5671276 C95.5759369,67.5563255 96.056973,67.5212278 96.5965698,67.4618335 C97.1361666,67.4024392 97.7148381,67.3070887 98.3326017,67.175779 C99.3567886,66.9580813 100.216269,66.6450437 100.91107,66.2366566 C101.60587,65.8282695 102.147263,65.3576946 102.535265,64.8249176 C102.923267,64.2921407 103.169208,63.7105669 103.273095,63.0801788 C103.376982,62.4497907 103.358234,61.8020288 103.216851,61.1368736 C103.081894,60.5019527 102.85006,59.9508335 102.52134,59.4834994 C102.192621,59.0161654 101.826383,58.612114 101.422615,58.2713332 C101.018847,57.9305523 100.592211,57.6420384 100.142695,57.4057826 C99.6931786,57.1695269 99.2842154,56.9641561 98.9157931,56.789664 C98.5473708,56.615172 98.2341505,56.4605501 97.9761229,56.3257936 C97.7180952,56.1910372 97.5762305,56.0631922 97.5505245,55.9422549 C97.5216052,55.8062004 97.5478828,55.6900155 97.6293582,55.5936965 C97.7108335,55.4973776 97.8133842,55.42028 97.9370132,55.3624016 C98.0606421,55.3045231 98.1948075,55.2562555 98.3395133,55.2175972 C98.4842191,55.178939 98.605341,55.1492437 98.7028826,55.1285106 C98.8817089,55.0904999 99.0540108,55.061776 99.2197934,55.042338 C99.385576,55.0228999 99.5350995,55.0069177 99.6683682,54.9943907 C99.8341508,54.9749527 99.9836743,54.9589704 100.116943,54.9464434 L99.2156302,50.7061002 C98.8645948,50.7333146 98.5054363,50.7622563 98.1381439,50.7929262 C97.8228356,50.8283467 97.4660871,50.8686261 97.0678875,50.9137657 C96.6696879,50.9589052 96.2755107,51.0229402 95.8853443,51.1058727 C95.1375252,51.2648265 94.4545058,51.5087563 93.8362655,51.8376694 C93.2180253,52.1665824 92.7036178,52.5642717 92.2930278,53.0307492 C91.8824378,53.4972267 91.5968016,54.0319383 91.4361108,54.6349 C91.27542,55.2378617 91.2705861,55.894586 91.4216089,56.6050927 C91.5565655,57.2400136 91.7900542,57.7789313 92.122082,58.2218618 C92.4541098,58.6647924 92.8366524,59.0456283 93.269721,59.3643809 C93.7027897,59.6831335 94.1505974,59.9513473 94.6131573,60.1690304 C95.0757173,60.3867135 95.5082622,60.5831219 95.910805,60.7582614 C96.3133478,60.933401 96.6501022,61.0988205 96.9210782,61.254525 C97.1920542,61.4102294 97.348426,61.5863406 97.3901983,61.7828637 C97.4994488,62.2968473 97.1801694,62.6333109 96.4323503,62.7922648 C96.00967,62.8821083 95.5862404,62.9484111 95.1620487,62.9911754 C94.7378571,63.0339396 94.3551645,63.0520837 94.0139595,63.0456082 C93.6109401,63.068072 93.2193635,63.0644046 92.8392182,63.0346059 Z M103.990543,50.4761654 L107.205386,65.6008122 L116.959499,63.5275115 L116.116024,59.5592759 L111.555976,60.5285439 L111.184848,58.7825202 L115.501043,57.8650847 L114.700947,54.1009297 L110.384752,55.0183652 L110.028082,53.3403684 L114.417433,52.4073831 L113.573959,48.4391474 L103.990543,50.4761654 Z M120.400169,62.6340715 L124.911446,61.67517 C126.439598,61.3503512 127.766554,60.8984488 128.892354,60.3194492 C130.018154,59.7404496 130.92405,59.0462479 131.610068,58.2368233 C132.296087,57.4273988 132.75408,56.5045033 132.98406,55.4681093 C133.214041,54.4317154 133.197288,53.2937317 132.933801,52.0541243 C132.670315,50.8145168 132.222759,49.7681031 131.591122,48.9148515 C130.959485,48.0616 130.165713,47.4047755 129.209781,46.9443583 C128.253849,46.4839411 127.144718,46.2219965 125.882355,46.1585167 C124.619992,46.0950369 123.224755,46.2257044 121.696603,46.5505231 L117.185326,47.5094247 L120.400169,62.6340715 Z M124.678818,57.2236039 L123.29552,50.7156973 C124.51479,50.4565335 125.51391,50.5206628 126.292908,50.9080873 C127.071906,51.2955118 127.578681,52.0409893 127.813249,53.1445423 C128.047816,54.2480952 127.88887,55.1390261 127.336406,55.8173617 C126.783942,56.4956973 125.898089,56.96444 124.678818,57.2236039 Z" id="Combined-Shape"></path>
            </g>
        </g>
    </g>
</svg>