<?xml version="1.0" encoding="UTF-8" standalone="no"?>
<svg
   xmlns:dc="http://purl.org/dc/elements/1.1/"
   xmlns:cc="http://creativecommons.org/ns#"
   xmlns:rdf="http://www.w3.org/1999/02/22-rdf-syntax-ns#"
   xmlns:svg="http://www.w3.org/2000/svg"
   xmlns="http://www.w3.org/2000/svg"
   xmlns:sodipodi="http://sodipodi.sourceforge.net/DTD/sodipodi-0.dtd"
   xmlns:inkscape="http://www.inkscape.org/namespaces/inkscape"
   width="334pt"
   height="334pt"
   viewBox="0 0 334 334"
   version="1.2"
   id="svg4551"
   sodipodi:docname="sponge.svg"
   inkscape:version="0.92.4 (5da689c313, 2019-01-14)">
  <metadata
     id="metadata4555">
    <rdf:RDF>
      <cc:Work
         rdf:about="">
        <dc:format>image/svg+xml</dc:format>
        <dc:type
           rdf:resource="http://purl.org/dc/dcmitype/StillImage" />
        <dc:title />
      </cc:Work>
    </rdf:RDF>
  </metadata>
  <sodipodi:namedview
     pagecolor="#ffffff"
     bordercolor="#666666"
     borderopacity="1"
     objecttolerance="10"
     gridtolerance="10"
     guidetolerance="10"
     inkscape:pageopacity="0"
     inkscape:pageshadow="2"
     inkscape:window-width="1920"
     inkscape:window-height="986"
     id="namedview4553"
     showgrid="false"
     inkscape:zoom="1.7133234"
     inkscape:cx="155.25383"
     inkscape:cy="288.60398"
     inkscape:window-x="-11"
     inkscape:window-y="-11"
     inkscape:window-maximized="1"
     inkscape:current-layer="svg4551" />
  <defs
     id="defs4530">
    <clipPath
       id="clip1">
      <path
         d="M 26 26 L 309 26 L 309 308 L 26 308 Z M 26 26 "
         id="path4518" />
    </clipPath>
    <clipPath
       id="clip2">
      <path
         d="M 26.09375 168.125 C 26.09375 146.664063 29.601563 127.160156 36.613281 109.613281 C 43.625 92.066406 53.332031 77.109375 65.726563 64.738281 C 78.125 52.363281 92.902344 42.835938 110.058594 36.144531 C 127.214844 29.453125 146.058594 26.109375 166.597656 26.109375 C 187.382813 25.855469 206.417969 28.949219 223.699219 35.386719 C 240.980469 41.824219 255.882813 51.230469 268.402344 63.601563 C 280.925781 75.972656 290.695313 90.867188 297.707031 108.289063 C 304.71875 125.707031 308.226563 145.148438 308.226563 166.609375 C 308.226563 187.566406 304.71875 206.625 297.707031 223.792969 C 290.695313 240.960938 280.925781 255.730469 268.402344 268.101563 C 255.882813 280.476563 240.980469 290.132813 223.699219 297.074219 C 206.417969 304.019531 187.382813 307.617188 166.597656 307.867188 C 146.058594 307.867188 127.214844 304.523438 110.058594 297.832031 C 92.902344 291.140625 78.125 281.675781 65.726563 269.429688 C 53.332031 257.183594 43.625 242.476563 36.613281 225.308594 C 29.601563 208.140625 26.09375 189.078125 26.09375 168.125 Z M 26.09375 168.125 "
         id="path4521" />
    </clipPath>
    <clipPath
       id="clip3">
      <path
         d="M 26 76 L 308 76 L 308 258 L 26 258 Z M 26 76 "
         id="path4524" />
    </clipPath>
    <clipPath
       id="clip4">
      <path
         d="M 287.910156 181.300781 C 280.246094 181.300781 276.761719 179.019531 274.324219 177.066406 C 272.582031 175.765625 271.535156 175.4375 269.09375 175.4375 C 267.703125 175.4375 267.003906 177.066406 264.914063 179.671875 C 262.476563 183.902344 258.640625 190.089844 250.277344 190.089844 C 241.566406 190.089844 238.78125 181.625 236.691406 175.765625 C 234.949219 169.578125 233.554688 166.648438 231.460938 166.648438 C 229.71875 166.648438 228.328125 174.136719 227.628906 178.042969 C 225.886719 186.835938 223.796875 198.878906 212.644531 198.878906 C 201.496094 198.878906 199.40625 185.53125 198.011719 173.8125 C 197.3125 168.925781 196.269531 160.136719 194.179688 158.183594 C 191.390625 161.4375 189.648438 176.414063 188.953125 185.53125 C 186.859375 205.066406 185.117188 219.390625 175.011719 219.390625 C 165.257813 219.390625 163.515625 204.742188 160.03125 162.742188 C 158.984375 151.019531 158.007813 139.921875 156.265625 130.808594 C 154.523438 121.691406 152.363281 165.996094 150.96875 185.855469 C 147.136719 248.042969 145.394531 257.484375 137.378906 257.484375 C 129.367188 257.484375 127.625 250.972656 123.441406 168.601563 C 122.398438 143.859375 121.015625 120.183594 118.578125 103.253906 C 116.140625 86.324219 115.777344 125.625 114.730469 140.601563 C 111.246094 196.925781 109.503906 210.925781 100.097656 210.925781 C 89.992188 210.925781 87.902344 197.578125 85.808594 183.253906 C 84.765625 176.742188 83.371094 166.324219 80.929688 164.042969 C 78.839844 164.695313 76.75 170.554688 75.703125 174.460938 C 73.613281 181.625 71.175781 190.414063 62.464844 190.414063 C 55.496094 190.414063 52.359375 186.835938 50.617188 184.878906 C 48.875 182.925781 47.828125 181.625 43.648438 181.625 L 28.996094 181.949219 C 26.554688 181.949219 26.578125 181.300781 26.578125 179.019531 C 26.578125 176.742188 26.207031 173.8125 28.996094 173.8125 L 43.648438 172.835938 C 52.011719 172.835938 55.144531 176.742188 57.585938 179.019531 C 59.328125 180.648438 59.675781 181.625 62.464844 181.625 C 64.207031 180.972656 65.949219 175.113281 66.644531 172.183594 C 69.085938 164.695313 71.871094 155.253906 81.28125 155.253906 C 91.035156 155.253906 92.777344 167.625 95.21875 181.949219 C 96.261719 187.160156 97.308594 196.601563 99.398438 200.507813 C 102.535156 191.066406 104.277344 160.789063 105.671875 139.949219 C 108.808594 88.507813 110.550781 76.460938 118.914063 76.460938 C 126.925781 76.460938 129.019531 83.625 133.199219 168.925781 C 134.59375 191.71875 135.289063 213.667969 137.378906 230.597656 C 139.472656 247.527344 141.214844 203.113281 142.257813 186.183594 C 146.789063 121.390625 148.53125 111.625 156.894531 111.625 C 165.605469 111.625 167.347656 124.648438 170.136719 163.066406 C 171.527344 179.019531 173.269531 201.8125 176.058594 209.625 C 177.800781 204.742188 179.195313 193.019531 180.242188 185.207031 C 182.332031 165.347656 184.074219 149.71875 194.527344 149.71875 C 204.980469 149.71875 206.375 161.765625 208.117188 173.160156 C 209.160156 179.347656 210.207031 190.742188 213.34375 190.742188 C 216.480469 190.742188 217.875 184.878906 218.917969 177.390625 C 220.660156 168.925781 222.402344 158.507813 232.160156 158.507813 C 241.917969 158.507813 244.703125 167.300781 246.445313 173.8125 C 247.839844 177.390625 248.886719 181.949219 250.976563 181.949219 C 253.765625 181.949219 255.15625 180.324219 257.597656 176.089844 C 259.6875 172.183594 262.824219 167.300781 269.792969 167.300781 C 275.367188 167.300781 278.15625 169.253906 280.59375 170.878906 C 283.035156 172.507813 284.425781 173.160156 288.609375 173.160156 C 301.363281 171.640625 307.742188 171.316406 307.742188 172.183594 C 307.742188 173.484375 307.742188 175.4375 307.742188 178.042969 C 307.742188 179.128906 301.132813 180.214844 287.910156 181.300781 Z M 287.910156 181.300781 "
         id="path4527" />
    </clipPath>
  </defs>
  <g
     id="surface6467"
     transform="matrix(1.1450336,0,0,1.1450336,-24.404004,-24.198935)">
    <g
       clip-path="url(#clip1)"
       id="g4540"
       style="clip-rule:nonzero">
      <g
         clip-path="url(#clip2)"
         id="g4538"
         style="clip-rule:evenodd">
        <path
           style="fill:#fff000;fill-opacity:1;fill-rule:nonzero;stroke:none"
           d="M 16.09375,317.86719 H 318.22656 V 16.09375 H 16.09375 Z m 0,0"
           id="path4536"
           inkscape:connector-curvature="0" />
      </g>
    </g>
    <path
       style="fill:none;stroke:#000000;stroke-width:3.80887198;stroke-linecap:butt;stroke-linejoin:miter;stroke-miterlimit:10;stroke-opacity:1"
       d="M 0,71.0156 C 0,60.285131 1.753906,50.533178 5.259766,41.759741 8.765625,32.986303 13.619141,25.507787 19.816406,19.322241 26.015625,13.136694 33.404297,8.371069 41.982422,5.025366 c 8.578125,-3.345704 18,-5.0175785 28.269531,-5.0175785 10.392578,-0.1269535 19.910156,1.4199215 28.550781,4.6386715 8.640626,3.21875 16.091796,7.921875 22.351566,14.107422 6.26172,6.185547 11.14648,13.632813 14.65234,22.34375 3.50586,8.708985 5.25977,18.429688 5.25977,29.160156 0,10.478516 -1.75391,20.007813 -5.25977,28.591797 -3.50586,8.583986 -8.39062,15.968746 -14.65234,22.156246 -6.25977,6.18555 -13.71094,11.01368 -22.351566,14.48438 -8.640625,3.47266 -18.158203,5.27148 -28.550781,5.39648 -10.269531,0 -19.691406,-1.67187 -28.269531,-5.01757 C 33.404297,132.52341 26.015625,127.79099 19.816406,121.66794 13.619141,115.5449 8.765625,108.19138 5.259766,99.607397 1.753906,91.023412 0,81.492162 0,71.0156 Z m 0,0"
       transform="matrix(2,0,0,2,26.09375,26.0938)"
       id="path4542"
       inkscape:connector-curvature="0" />
    <g
       clip-path="url(#clip3)"
       id="g4548"
       style="clip-rule:nonzero">
      <g
         clip-path="url(#clip4)"
         id="g4546"
         style="clip-rule:evenodd">
        <path
           style="fill:#000000;fill-opacity:1;fill-rule:nonzero;stroke:none"
           d="M 16.5625,267.48437 H 317.74219 V 66.460938 H 16.5625 Z m 0,0"
           id="path4544"
           inkscape:connector-curvature="0" />
      </g>
    </g>
  </g>
</svg>
