<?xml version="1.0" encoding="UTF-8" standalone="no"?>
<svg
   xmlns:dc="http://purl.org/dc/elements/1.1/"
   xmlns:cc="http://creativecommons.org/ns#"
   xmlns:rdf="http://www.w3.org/1999/02/22-rdf-syntax-ns#"
   xmlns:svg="http://www.w3.org/2000/svg"
   xmlns="http://www.w3.org/2000/svg"
   width="921"
   height="253"
   viewBox="0 0 921 253"
   version="1.1"
   id="Vibes-Text-Logo">
  <title
     id="title243">Vibes</title>
  <desc
     id="desc245">Text Logo No Background</desc>
  <g
     style="fill:none;fill-rule:evenodd;stroke:#000000;stroke-width:2.20000005"
     id="Vibes"
     transform="translate(6,-42)">
    <path
       d="M 198,125.9 132,290 H 61.8 l -66,-164.1 h 69.6 l 33,87.9 35.4,-87.9 z m -1.5,0 h 67.8 V 290 h -67.8 z m 33.9,-13.2 c -12.20006,0 -22.04996,-3.24997 -29.55,-9.75 -7.50004,-6.500033 -11.25,-14.74995 -11.25,-24.75 0,-10.00005 3.74996,-18.249968 11.25,-24.75 7.50004,-6.500033 17.34994,-9.75 29.55,-9.75 12.40006,0 22.29996,3.099969 29.7,9.3 7.40004,6.200031 11.1,14.199951 11.1,24 0,10.400052 -3.69996,18.949967 -11.1,25.65 -7.40004,6.70003 -17.29994,10.05 -29.7,10.05 z m 161.4,10.2 c 14.40007,0 27.64994,3.44996 39.75,10.35 12.10006,6.90003 21.69996,16.79994 28.8,29.7 7.10004,12.90006 10.65,27.84991 10.65,44.85 0,17.00008 -3.54996,31.99993 -10.65,45 -7.10004,13.00007 -16.69994,22.94997 -28.8,29.85 -12.10006,6.90003 -25.34993,10.35 -39.75,10.35 -20.2001,0 -35.19995,-5.49995 -45,-16.5 V 290 H 282.3 V 67.4 h 67.8 V 137 c 9.60005,-9.40005 23.49991,-14.1 41.7,-14.1 z m -16.2,117.3 c 7.80004,0 14.19998,-2.84997 19.2,-8.55 5.00002,-5.70003 7.5,-13.64995 7.5,-23.85 0,-10.20005 -2.49998,-18.09997 -7.5,-23.7 -5.00002,-5.60003 -11.39996,-8.4 -19.2,-8.4 -7.80004,0 -14.19997,2.79997 -19.2,8.4 -5.00003,5.60003 -7.5,13.49995 -7.5,23.7 0,10.20005 2.49997,18.14997 7.5,23.85 5.00003,5.70003 11.39996,8.55 19.2,8.55 z m 279.3,-32.4 c 0,1 -0.3,6.29995 -0.9,15.9 H 540 c 2.40001,6.20003 6.39997,10.94998 12,14.25 5.60003,3.30002 12.59996,4.95 21,4.95 7.20004,0 13.24997,-0.89999 18.15,-2.7 4.90002,-1.80001 10.24997,-4.89998 16.05,-9.3 l 35.4,35.7 c -16.00008,17.60009 -39.89984,26.4 -71.7,26.4 -19.8001,0 -37.19993,-3.64996 -52.2,-10.95 -15.00008,-7.30004 -26.59996,-17.44994 -34.8,-30.45 -8.20004,-13.00007 -12.3,-27.59992 -12.3,-43.8 0,-16.40008 4.04996,-31.04994 12.15,-43.95 8.10004,-12.90007 19.19993,-22.94996 33.3,-30.15 14.10007,-7.20004 29.94991,-10.8 47.55,-10.8 16.60008,0 31.74993,3.29997 45.45,9.9 13.70007,6.60003 24.59996,16.29994 32.7,29.1 8.10004,12.80006 12.15,28.09991 12.15,45.9 z m -89.7,-38.7 c -7.00003,0 -12.79998,1.89998 -17.4,5.7 -4.60002,3.80002 -7.59999,9.19996 -9,16.2 h 52.8 c -1.40001,-6.80003 -4.39998,-12.14998 -9,-16.05 -4.60002,-3.90002 -10.39997,-5.85 -17.4,-5.85 z M 728.4,293 c -14.00007,0 -27.79993,-1.49998 -41.4,-4.5 -13.60007,-3.00002 -24.59996,-6.89998 -33,-11.7 l 18.6,-44.7 c 7.60004,4.60002 16.59995,8.19999 27,10.8 10.40005,2.60001 20.49995,3.9 30.3,3.9 7.80004,0 13.24998,-0.64999 16.35,-1.95 3.10001,-1.30001 4.65,-3.24999 4.65,-5.85 0,-2.60001 -1.94998,-4.4 -5.85,-5.4 -3.90002,-1.00001 -10.24996,-2 -19.05,-3 -13.40007,-1.60001 -24.79995,-3.64999 -34.2,-6.15 -9.40005,-2.50001 -17.64996,-7.34996 -24.75,-14.55 -7.10003,-7.20004 -10.65,-17.49993 -10.65,-30.9 0,-10.60005 3.19997,-20.09996 9.6,-28.5 6.40003,-8.40004 15.94994,-15.09998 28.65,-20.1 12.70006,-5.00003 27.94991,-7.5 45.75,-7.5 12.40006,0 24.54994,1.14999 36.45,3.45 11.90006,2.30001 22.04996,5.64998 30.45,10.05 l -18.6,44.7 c -14.40007,-8.00004 -30.19991,-12 -47.4,-12 -14.80007,0 -22.2,2.59997 -22.2,7.8 0,2.60001 1.99998,4.44999 6,5.55 4.00002,1.1 10.29996,2.14999 18.9,3.15 13.40007,1.60001 24.74995,3.69999 34.05,6.3 9.30005,2.60001 17.49996,7.49996 24.6,14.7 7.10004,7.20004 10.65,17.49993 10.65,30.9 0,10.20005 -3.19997,19.49996 -9.6,27.9 -6.40003,8.40004 -15.99994,15.09997 -28.8,20.1 -12.80006,5.00002 -28.29991,7.5 -46.5,7.5 z"
       id="yellow"
       style="fill:#f5c300" />
    <path
       d="M 218,125.9 152,290 H 81.8 l -66,-164.1 h 69.6 l 33,87.9 35.4,-87.9 z m -1.5,0 h 67.8 V 290 h -67.8 z m 33.9,-13.2 c -12.20006,0 -22.04996,-3.24997 -29.55,-9.75 -7.50004,-6.500033 -11.25,-14.74995 -11.25,-24.75 0,-10.00005 3.74996,-18.249968 11.25,-24.75 7.50004,-6.500033 17.34994,-9.75 29.55,-9.75 12.40006,0 22.29996,3.099969 29.7,9.3 7.40004,6.200031 11.1,14.199951 11.1,24 0,10.400052 -3.69996,18.949967 -11.1,25.65 -7.40004,6.70003 -17.29994,10.05 -29.7,10.05 z m 161.4,10.2 c 14.40007,0 27.64994,3.44996 39.75,10.35 12.10006,6.90003 21.69996,16.79994 28.8,29.7 7.10004,12.90006 10.65,27.84991 10.65,44.85 0,17.00008 -3.54996,31.99993 -10.65,45 -7.10004,13.00007 -16.69994,22.94997 -28.8,29.85 -12.10006,6.90003 -25.34993,10.35 -39.75,10.35 -20.2001,0 -35.19995,-5.49995 -45,-16.5 V 290 H 302.3 V 67.4 h 67.8 V 137 c 9.60005,-9.40005 23.49991,-14.1 41.7,-14.1 z m -16.2,117.3 c 7.80004,0 14.19998,-2.84997 19.2,-8.55 5.00002,-5.70003 7.5,-13.64995 7.5,-23.85 0,-10.20005 -2.49998,-18.09997 -7.5,-23.7 -5.00002,-5.60003 -11.39996,-8.4 -19.2,-8.4 -7.80004,0 -14.19997,2.79997 -19.2,8.4 -5.00003,5.60003 -7.5,13.49995 -7.5,23.7 0,10.20005 2.49997,18.14997 7.5,23.85 5.00003,5.70003 11.39996,8.55 19.2,8.55 z m 279.3,-32.4 c 0,1 -0.3,6.29995 -0.9,15.9 H 560 c 2.40001,6.20003 6.39997,10.94998 12,14.25 5.60003,3.30002 12.59996,4.95 21,4.95 7.20004,0 13.24997,-0.89999 18.15,-2.7 4.90002,-1.80001 10.24997,-4.89998 16.05,-9.3 l 35.4,35.7 c -16.00008,17.60009 -39.89984,26.4 -71.7,26.4 -19.8001,0 -37.19993,-3.64996 -52.2,-10.95 -15.00008,-7.30004 -26.59996,-17.44994 -34.8,-30.45 -8.20004,-13.00007 -12.3,-27.59992 -12.3,-43.8 0,-16.40008 4.04996,-31.04994 12.15,-43.95 8.10004,-12.90007 19.19993,-22.94996 33.3,-30.15 14.10007,-7.20004 29.94991,-10.8 47.55,-10.8 16.60008,0 31.74993,3.29997 45.45,9.9 13.70007,6.60003 24.59996,16.29994 32.7,29.1 8.10004,12.80006 12.15,28.09991 12.15,45.9 z m -89.7,-38.7 c -7.00003,0 -12.79998,1.89998 -17.4,5.7 -4.60002,3.80002 -7.59999,9.19996 -9,16.2 h 52.8 c -1.40001,-6.80003 -4.39998,-12.14998 -9,-16.05 -4.60002,-3.90002 -10.39997,-5.85 -17.4,-5.85 z M 748.4,293 c -14.00007,0 -27.79993,-1.49998 -41.4,-4.5 -13.60007,-3.00002 -24.59996,-6.89998 -33,-11.7 l 18.6,-44.7 c 7.60004,4.60002 16.59995,8.19999 27,10.8 10.40005,2.60001 20.49995,3.9 30.3,3.9 7.80004,0 13.24998,-0.64999 16.35,-1.95 3.10001,-1.30001 4.65,-3.24999 4.65,-5.85 0,-2.60001 -1.94998,-4.4 -5.85,-5.4 -3.90002,-1.00001 -10.24996,-2 -19.05,-3 -13.40007,-1.60001 -24.79995,-3.64999 -34.2,-6.15 -9.40005,-2.50001 -17.64996,-7.34996 -24.75,-14.55 -7.10003,-7.20004 -10.65,-17.49993 -10.65,-30.9 0,-10.60005 3.19997,-20.09996 9.6,-28.5 6.40003,-8.40004 15.94994,-15.09998 28.65,-20.1 12.70006,-5.00003 27.94991,-7.5 45.75,-7.5 12.40006,0 24.54994,1.14999 36.45,3.45 11.90006,2.30001 22.04996,5.64998 30.45,10.05 l -18.6,44.7 c -14.40007,-8.00004 -30.19991,-12 -47.4,-12 -14.80007,0 -22.2,2.59997 -22.2,7.8 0,2.60001 1.99998,4.44999 6,5.55 4.00002,1.1 10.29996,2.14999 18.9,3.15 13.40007,1.60001 24.74995,3.69999 34.05,6.3 9.30005,2.60001 17.49996,7.49996 24.6,14.7 7.10004,7.20004 10.65,17.49993 10.65,30.9 0,10.20005 -3.19997,19.49996 -9.6,27.9 -6.40003,8.40004 -15.99994,15.09997 -28.8,20.1 -12.80006,5.00002 -28.29991,7.5 -46.5,7.5 z"
       id="red"
       style="fill:#ef4b5f" />
    <path
       d="M 238,125.9 172,290 h -70.2 l -66,-164.1 h 69.6 l 33,87.9 35.4,-87.9 z m -1.5,0 h 67.8 V 290 h -67.8 z m 33.9,-13.2 c -12.20006,0 -22.04996,-3.24997 -29.55,-9.75 -7.50004,-6.500033 -11.25,-14.74995 -11.25,-24.75 0,-10.00005 3.74996,-18.249968 11.25,-24.75 7.50004,-6.500033 17.34994,-9.75 29.55,-9.75 12.40006,0 22.29996,3.099969 29.7,9.3 7.40004,6.200031 11.1,14.199951 11.1,24 0,10.400052 -3.69996,18.949967 -11.1,25.65 -7.40004,6.70003 -17.29994,10.05 -29.7,10.05 z m 161.4,10.2 c 14.40007,0 27.64994,3.44996 39.75,10.35 12.10006,6.90003 21.69996,16.79994 28.8,29.7 7.10004,12.90006 10.65,27.84991 10.65,44.85 0,17.00008 -3.54996,31.99993 -10.65,45 -7.10004,13.00007 -16.69994,22.94997 -28.8,29.85 -12.10006,6.90003 -25.34993,10.35 -39.75,10.35 -20.2001,0 -35.19995,-5.49995 -45,-16.5 V 290 H 322.3 V 67.4 h 67.8 V 137 c 9.60005,-9.40005 23.49991,-14.1 41.7,-14.1 z m -16.2,117.3 c 7.80004,0 14.19998,-2.84997 19.2,-8.55 5.00002,-5.70003 7.5,-13.64995 7.5,-23.85 0,-10.20005 -2.49998,-18.09997 -7.5,-23.7 -5.00002,-5.60003 -11.39996,-8.4 -19.2,-8.4 -7.80004,0 -14.19997,2.79997 -19.2,8.4 -5.00003,5.60003 -7.5,13.49995 -7.5,23.7 0,10.20005 2.49997,18.14997 7.5,23.85 5.00003,5.70003 11.39996,8.55 19.2,8.55 z m 279.3,-32.4 c 0,1 -0.3,6.29995 -0.9,15.9 H 580 c 2.40001,6.20003 6.39997,10.94998 12,14.25 5.60003,3.30002 12.59996,4.95 21,4.95 7.20004,0 13.24997,-0.89999 18.15,-2.7 4.90002,-1.80001 10.24997,-4.89998 16.05,-9.3 l 35.4,35.7 c -16.00008,17.60009 -39.89984,26.4 -71.7,26.4 -19.8001,0 -37.19993,-3.64996 -52.2,-10.95 -15.00008,-7.30004 -26.59996,-17.44994 -34.8,-30.45 -8.20004,-13.00007 -12.3,-27.59992 -12.3,-43.8 0,-16.40008 4.04996,-31.04994 12.15,-43.95 8.10004,-12.90007 19.19993,-22.94996 33.3,-30.15 14.10007,-7.20004 29.94991,-10.8 47.55,-10.8 16.60008,0 31.74993,3.29997 45.45,9.9 13.70007,6.60003 24.59996,16.29994 32.7,29.1 8.10004,12.80006 12.15,28.09991 12.15,45.9 z m -89.7,-38.7 c -7.00003,0 -12.79998,1.89998 -17.4,5.7 -4.60002,3.80002 -7.59999,9.19996 -9,16.2 h 52.8 c -1.40001,-6.80003 -4.39998,-12.14998 -9,-16.05 -4.60002,-3.90002 -10.39997,-5.85 -17.4,-5.85 z M 768.4,293 c -14.00007,0 -27.79993,-1.49998 -41.4,-4.5 -13.60007,-3.00002 -24.59996,-6.89998 -33,-11.7 l 18.6,-44.7 c 7.60004,4.60002 16.59995,8.19999 27,10.8 10.40005,2.60001 20.49995,3.9 30.3,3.9 7.80004,0 13.24998,-0.64999 16.35,-1.95 3.10001,-1.30001 4.65,-3.24999 4.65,-5.85 0,-2.60001 -1.94998,-4.4 -5.85,-5.4 -3.90002,-1.00001 -10.24996,-2 -19.05,-3 -13.40007,-1.60001 -24.79995,-3.64999 -34.2,-6.15 -9.40005,-2.50001 -17.64996,-7.34996 -24.75,-14.55 -7.10003,-7.20004 -10.65,-17.49993 -10.65,-30.9 0,-10.60005 3.19997,-20.09996 9.6,-28.5 6.40003,-8.40004 15.94994,-15.09998 28.65,-20.1 12.70006,-5.00003 27.94991,-7.5 45.75,-7.5 12.40006,0 24.54994,1.14999 36.45,3.45 11.90006,2.30001 22.04996,5.64998 30.45,10.05 l -18.6,44.7 c -14.40007,-8.00004 -30.19991,-12 -47.4,-12 -14.80007,0 -22.2,2.59997 -22.2,7.8 0,2.60001 1.99998,4.44999 6,5.55 4.00002,1.1 10.29996,2.14999 18.9,3.15 13.40007,1.60001 24.74995,3.69999 34.05,6.3 9.30005,2.60001 17.49996,7.49996 24.6,14.7 7.10004,7.20004 10.65,17.49993 10.65,30.9 0,10.20005 -3.19997,19.49996 -9.6,27.9 -6.40003,8.40004 -15.99994,15.09997 -28.8,20.1 -12.80006,5.00002 -28.29991,7.5 -46.5,7.5 z"
       id="white"
       style="fill:#ffffff" />
    <path
       d="M 258,125.9 192,290 h -70.2 l -66,-164.1 h 69.6 l 33,87.9 35.4,-87.9 z m -1.5,0 h 67.8 V 290 h -67.8 z m 33.9,-13.2 c -12.20006,0 -22.04996,-3.24997 -29.55,-9.75 -7.50004,-6.500033 -11.25,-14.74995 -11.25,-24.75 0,-10.00005 3.74996,-18.249968 11.25,-24.75 7.50004,-6.500033 17.34994,-9.75 29.55,-9.75 12.40006,0 22.29996,3.099969 29.7,9.3 7.40004,6.200031 11.1,14.199951 11.1,24 0,10.400052 -3.69996,18.949967 -11.1,25.65 -7.40004,6.70003 -17.29994,10.05 -29.7,10.05 z m 161.4,10.2 c 14.40007,0 27.64994,3.44996 39.75,10.35 12.10006,6.90003 21.69996,16.79994 28.8,29.7 7.10004,12.90006 10.65,27.84991 10.65,44.85 0,17.00008 -3.54996,31.99993 -10.65,45 -7.10004,13.00007 -16.69994,22.94997 -28.8,29.85 -12.10006,6.90003 -25.34993,10.35 -39.75,10.35 -20.2001,0 -35.19995,-5.49995 -45,-16.5 V 290 H 342.3 V 67.4 h 67.8 V 137 c 9.60005,-9.40005 23.49991,-14.1 41.7,-14.1 z m -16.2,117.3 c 7.80004,0 14.19998,-2.84997 19.2,-8.55 5.00002,-5.70003 7.5,-13.64995 7.5,-23.85 0,-10.20005 -2.49998,-18.09997 -7.5,-23.7 -5.00002,-5.60003 -11.39996,-8.4 -19.2,-8.4 -7.80004,0 -14.19997,2.79997 -19.2,8.4 -5.00003,5.60003 -7.5,13.49995 -7.5,23.7 0,10.20005 2.49997,18.14997 7.5,23.85 5.00003,5.70003 11.39996,8.55 19.2,8.55 z m 279.3,-32.4 c 0,1 -0.3,6.29995 -0.9,15.9 H 600 c 2.40001,6.20003 6.39997,10.94998 12,14.25 5.60003,3.30002 12.59996,4.95 21,4.95 7.20004,0 13.24998,-0.89999 18.15,-2.7 4.90002,-1.80001 10.24997,-4.89998 16.05,-9.3 l 35.4,35.7 c -16.00008,17.60009 -39.89984,26.4 -71.7,26.4 -19.8001,0 -37.19993,-3.64996 -52.2,-10.95 -15.00008,-7.30004 -26.59996,-17.44994 -34.8,-30.45 -8.20004,-13.00007 -12.3,-27.59992 -12.3,-43.8 0,-16.40008 4.04996,-31.04994 12.15,-43.95 8.10004,-12.90007 19.19993,-22.94996 33.3,-30.15 14.10007,-7.20004 29.94991,-10.8 47.55,-10.8 16.60008,0 31.74993,3.29997 45.45,9.9 13.70007,6.60003 24.59996,16.29994 32.7,29.1 8.10004,12.80006 12.15,28.09991 12.15,45.9 z m -89.7,-38.7 c -7.00003,0 -12.79998,1.89998 -17.4,5.7 -4.60002,3.80002 -7.59999,9.19996 -9,16.2 h 52.8 c -1.40001,-6.80003 -4.39998,-12.14998 -9,-16.05 -4.60002,-3.90002 -10.39997,-5.85 -17.4,-5.85 z M 788.4,293 c -14.00007,0 -27.79993,-1.49998 -41.4,-4.5 -13.60007,-3.00002 -24.59996,-6.89998 -33,-11.7 l 18.6,-44.7 c 7.60004,4.60002 16.59995,8.19999 27,10.8 10.40005,2.60001 20.49995,3.9 30.3,3.9 7.80004,0 13.24998,-0.64999 16.35,-1.95 3.10001,-1.30001 4.65,-3.24999 4.65,-5.85 0,-2.60001 -1.94998,-4.4 -5.85,-5.4 -3.90002,-1.00001 -10.24996,-2 -19.05,-3 -13.40007,-1.60001 -24.79995,-3.64999 -34.2,-6.15 -9.40005,-2.50001 -17.64996,-7.34996 -24.75,-14.55 -7.10003,-7.20004 -10.65,-17.49993 -10.65,-30.9 0,-10.60005 3.19997,-20.09996 9.6,-28.5 6.40003,-8.40004 15.94994,-15.09998 28.65,-20.1 12.70006,-5.00003 27.94991,-7.5 45.75,-7.5 12.40006,0 24.54994,1.14999 36.45,3.45 11.90006,2.30001 22.04996,5.64998 30.45,10.05 l -18.6,44.7 c -14.40007,-8.00004 -30.19991,-12 -47.4,-12 -14.80007,0 -22.2,2.59997 -22.2,7.8 0,2.60001 1.99998,4.44999 6,5.55 4.00002,1.1 10.29996,2.14999 18.9,3.15 13.40007,1.60001 24.74995,3.69999 34.05,6.3 9.30005,2.60001 17.49996,7.49996 24.6,14.7 7.10004,7.20004 10.65,17.49993 10.65,30.9 0,10.20005 -3.19997,19.49996 -9.6,27.9 -6.40003,8.40004 -15.99994,15.09997 -28.8,20.1 -12.80006,5.00002 -28.29991,7.5 -46.5,7.5 z"
       id="blue"
       style="fill:#11aeff" />
    <path
       d="M 278,125.9 212,290 h -70.2 l -66,-164.1 h 69.6 l 33,87.9 35.4,-87.9 z m -1.5,0 h 67.8 V 290 h -67.8 z m 33.9,-13.2 c -12.20006,0 -22.04996,-3.24997 -29.55,-9.75 -7.50004,-6.500033 -11.25,-14.74995 -11.25,-24.75 0,-10.00005 3.74996,-18.249968 11.25,-24.75 7.50004,-6.500033 17.34994,-9.75 29.55,-9.75 12.40006,0 22.29996,3.099969 29.7,9.3 7.40004,6.200031 11.1,14.199951 11.1,24 0,10.400052 -3.69996,18.949967 -11.1,25.65 -7.40004,6.70003 -17.29994,10.05 -29.7,10.05 z m 161.4,10.2 c 14.40007,0 27.64994,3.44996 39.75,10.35 12.10006,6.90003 21.69996,16.79994 28.8,29.7 7.10004,12.90006 10.65,27.84991 10.65,44.85 0,17.00008 -3.54996,31.99993 -10.65,45 -7.10004,13.00007 -16.69994,22.94997 -28.8,29.85 -12.10006,6.90003 -25.34993,10.35 -39.75,10.35 -20.2001,0 -35.19995,-5.49995 -45,-16.5 V 290 H 362.3 V 67.4 h 67.8 V 137 c 9.60005,-9.40005 23.49991,-14.1 41.7,-14.1 z m -16.2,117.3 c 7.80004,0 14.19998,-2.84997 19.2,-8.55 5.00002,-5.70003 7.5,-13.64995 7.5,-23.85 0,-10.20005 -2.49998,-18.09997 -7.5,-23.7 -5.00002,-5.60003 -11.39996,-8.4 -19.2,-8.4 -7.80004,0 -14.19997,2.79997 -19.2,8.4 -5.00003,5.60003 -7.5,13.49995 -7.5,23.7 0,10.20005 2.49997,18.14997 7.5,23.85 5.00003,5.70003 11.39996,8.55 19.2,8.55 z m 279.3,-32.4 c 0,1 -0.3,6.29995 -0.9,15.9 H 620 c 2.40001,6.20003 6.39997,10.94998 12,14.25 5.60003,3.30002 12.59996,4.95 21,4.95 7.20004,0 13.24998,-0.89999 18.15,-2.7 4.90002,-1.80001 10.24997,-4.89998 16.05,-9.3 l 35.4,35.7 c -16.00008,17.60009 -39.89984,26.4 -71.7,26.4 -19.8001,0 -37.19993,-3.64996 -52.2,-10.95 -15.00008,-7.30004 -26.59996,-17.44994 -34.8,-30.45 -8.20004,-13.00007 -12.3,-27.59992 -12.3,-43.8 0,-16.40008 4.04996,-31.04994 12.15,-43.95 8.10004,-12.90007 19.19993,-22.94996 33.3,-30.15 14.10007,-7.20004 29.94991,-10.8 47.55,-10.8 16.60008,0 31.74993,3.29997 45.45,9.9 13.70007,6.60003 24.59996,16.29994 32.7,29.1 8.10004,12.80006 12.15,28.09991 12.15,45.9 z m -89.7,-38.7 c -7.00003,0 -12.79998,1.89998 -17.4,5.7 -4.60002,3.80002 -7.59999,9.19996 -9,16.2 h 52.8 c -1.40001,-6.80003 -4.39998,-12.14998 -9,-16.05 -4.60002,-3.90002 -10.39997,-5.85 -17.4,-5.85 z M 808.4,293 c -14.00007,0 -27.79993,-1.49998 -41.4,-4.5 -13.60007,-3.00002 -24.59996,-6.89998 -33,-11.7 l 18.6,-44.7 c 7.60004,4.60002 16.59995,8.19999 27,10.8 10.40005,2.60001 20.49995,3.9 30.3,3.9 7.80004,0 13.24998,-0.64999 16.35,-1.95 3.10001,-1.30001 4.65,-3.24999 4.65,-5.85 0,-2.60001 -1.94998,-4.4 -5.85,-5.4 -3.90002,-1.00001 -10.24996,-2 -19.05,-3 -13.40007,-1.60001 -24.79995,-3.64999 -34.2,-6.15 -9.40005,-2.50001 -17.64996,-7.34996 -24.75,-14.55 -7.10003,-7.20004 -10.65,-17.49993 -10.65,-30.9 0,-10.60005 3.19997,-20.09996 9.6,-28.5 6.40003,-8.40004 15.94994,-15.09998 28.65,-20.1 12.70006,-5.00003 27.94991,-7.5 45.75,-7.5 12.40006,0 24.54994,1.14999 36.45,3.45 11.90006,2.30001 22.04996,5.64998 30.45,10.05 l -18.6,44.7 c -14.40007,-8.00004 -30.19991,-12 -47.4,-12 -14.80007,0 -22.2,2.59997 -22.2,7.8 0,2.60001 1.99998,4.44999 6,5.55 4.00002,1.1 10.29996,2.14999 18.9,3.15 13.40007,1.60001 24.74995,3.69999 34.05,6.3 9.30005,2.60001 17.49996,7.49996 24.6,14.7 7.10004,7.20004 10.65,17.49993 10.65,30.9 0,10.20005 -3.19997,19.49996 -9.6,27.9 -6.40003,8.40004 -15.99994,15.09997 -28.8,20.1 -12.80006,5.00002 -28.29991,7.5 -46.5,7.5 z"
       id="purple"
       style="fill:#6478d3" />
    <path
       d="M 298,125.9 232,290 h -70.2 l -66,-164.1 h 69.6 l 33,87.9 35.4,-87.9 z m -1.5,0 h 67.8 V 290 h -67.8 z m 33.9,-13.2 c -12.20006,0 -22.04996,-3.24997 -29.55,-9.75 -7.50004,-6.500033 -11.25,-14.74995 -11.25,-24.75 0,-10.00005 3.74996,-18.249968 11.25,-24.75 7.50004,-6.500033 17.34994,-9.75 29.55,-9.75 12.40006,0 22.29996,3.099969 29.7,9.3 7.40004,6.200031 11.1,14.199951 11.1,24 0,10.400052 -3.69996,18.949967 -11.1,25.65 -7.40004,6.70003 -17.29994,10.05 -29.7,10.05 z m 161.4,10.2 c 14.40007,0 27.64994,3.44996 39.75,10.35 12.10006,6.90003 21.69996,16.79994 28.8,29.7 7.10004,12.90006 10.65,27.84991 10.65,44.85 0,17.00008 -3.54996,31.99993 -10.65,45 -7.10004,13.00007 -16.69994,22.94997 -28.8,29.85 -12.10006,6.90003 -25.34993,10.35 -39.75,10.35 -20.2001,0 -35.19995,-5.49995 -45,-16.5 V 290 H 382.3 V 67.4 h 67.8 V 137 c 9.60005,-9.40005 23.49991,-14.1 41.7,-14.1 z m -16.2,117.3 c 7.80004,0 14.19998,-2.84997 19.2,-8.55 5.00002,-5.70003 7.5,-13.64995 7.5,-23.85 0,-10.20005 -2.49998,-18.09997 -7.5,-23.7 -5.00002,-5.60003 -11.39996,-8.4 -19.2,-8.4 -7.80004,0 -14.19997,2.79997 -19.2,8.4 -5.00003,5.60003 -7.5,13.49995 -7.5,23.7 0,10.20005 2.49997,18.14997 7.5,23.85 5.00003,5.70003 11.39996,8.55 19.2,8.55 z m 279.3,-32.4 c 0,1 -0.3,6.29995 -0.9,15.9 H 640 c 2.40001,6.20003 6.39997,10.94998 12,14.25 5.60003,3.30002 12.59996,4.95 21,4.95 7.20004,0 13.24998,-0.89999 18.15,-2.7 4.90002,-1.80001 10.24997,-4.89998 16.05,-9.3 l 35.4,35.7 c -16.00008,17.60009 -39.89984,26.4 -71.7,26.4 -19.8001,0 -37.19993,-3.64996 -52.2,-10.95 -15.00008,-7.30004 -26.59996,-17.44994 -34.8,-30.45 -8.20004,-13.00007 -12.3,-27.59992 -12.3,-43.8 0,-16.40008 4.04996,-31.04994 12.15,-43.95 8.10004,-12.90007 19.19993,-22.94996 33.3,-30.15 14.10007,-7.20004 29.94991,-10.8 47.55,-10.8 16.60008,0 31.74993,3.29997 45.45,9.9 13.70007,6.60003 24.59996,16.29994 32.7,29.1 8.10004,12.80006 12.15,28.09991 12.15,45.9 z m -89.7,-38.7 c -7.00003,0 -12.79998,1.89998 -17.4,5.7 -4.60002,3.80002 -7.59999,9.19996 -9,16.2 h 52.8 c -1.40001,-6.80003 -4.39998,-12.14998 -9,-16.05 -4.60002,-3.90002 -10.39997,-5.85 -17.4,-5.85 z M 828.4,293 c -14.00007,0 -27.79993,-1.49998 -41.4,-4.5 -13.60007,-3.00002 -24.59996,-6.89998 -33,-11.7 l 18.6,-44.7 c 7.60004,4.60002 16.59995,8.19999 27,10.8 10.40005,2.60001 20.49995,3.9 30.3,3.9 7.80004,0 13.24998,-0.64999 16.35,-1.95 3.10001,-1.30001 4.65,-3.24999 4.65,-5.85 0,-2.60001 -1.94998,-4.4 -5.85,-5.4 -3.90002,-1.00001 -10.24996,-2 -19.05,-3 -13.40007,-1.60001 -24.79995,-3.64999 -34.2,-6.15 -9.40005,-2.50001 -17.64996,-7.34996 -24.75,-14.55 -7.10003,-7.20004 -10.65,-17.49993 -10.65,-30.9 0,-10.60005 3.19997,-20.09996 9.6,-28.5 6.40003,-8.40004 15.94994,-15.09998 28.65,-20.1 12.70006,-5.00003 27.94991,-7.5 45.75,-7.5 12.40006,0 24.54994,1.14999 36.45,3.45 11.90006,2.30001 22.04996,5.64998 30.45,10.05 l -18.6,44.7 c -14.40007,-8.00004 -30.19991,-12 -47.4,-12 -14.80007,0 -22.2,2.59997 -22.2,7.8 0,2.60001 1.99998,4.44999 6,5.55 4.00002,1.1 10.29996,2.14999 18.9,3.15 13.40007,1.60001 24.74995,3.69999 34.05,6.3 9.30005,2.60001 17.49996,7.49996 24.6,14.7 7.10004,7.20004 10.65,17.49993 10.65,30.9 0,10.20005 -3.19997,19.49996 -9.6,27.9 -6.40003,8.40004 -15.99994,15.09997 -28.8,20.1 -12.80006,5.00002 -28.29991,7.5 -46.5,7.5 z"
       id="green"
       style="fill:#51dc8e" />
  </g>
</svg>
