<?xml version="1.0" encoding="UTF-8" standalone="no"?>
<svg
   xmlns:dc="http://purl.org/dc/elements/1.1/"
   xmlns:cc="http://creativecommons.org/ns#"
   xmlns:rdf="http://www.w3.org/1999/02/22-rdf-syntax-ns#"
   xmlns:svg="http://www.w3.org/2000/svg"
   xmlns="http://www.w3.org/2000/svg"
   xmlns:sodipodi="http://sodipodi.sourceforge.net/DTD/sodipodi-0.dtd"
   xmlns:inkscape="http://www.inkscape.org/namespaces/inkscape"
   width="725px"
   height="544px"
   viewBox="0 0 725 544"
   version="1.1"
   id="svg2567"
   sodipodi:docname="App Icon - no bg-fixed.svg"
   inkscape:version="0.92.4 (5da689c313, 2019-01-14)">
  <metadata
     id="metadata2573">
    <rdf:RDF>
      <cc:Work
         rdf:about="">
        <dc:format>image/svg+xml</dc:format>
        <dc:type
           rdf:resource="http://purl.org/dc/dcmitype/StillImage" />
        <dc:title>Group</dc:title>
      </cc:Work>
    </rdf:RDF>
  </metadata>
  <defs
     id="defs2571" />
  <sodipodi:namedview
     pagecolor="#ffffff"
     bordercolor="#666666"
     borderopacity="1"
     objecttolerance="10"
     gridtolerance="10"
     guidetolerance="10"
     inkscape:pageopacity="0"
     inkscape:pageshadow="2"
     inkscape:window-width="1920"
     inkscape:window-height="1017"
     id="namedview2569"
     showgrid="false"
     inkscape:zoom="1.1079632"
     inkscape:cx="362.5"
     inkscape:cy="272"
     inkscape:window-x="-8"
     inkscape:window-y="-8"
     inkscape:window-maximized="1"
     inkscape:current-layer="svg2567" />
  <!-- Generator: Sketch 52.6 (67491) - http://www.bohemiancoding.com/sketch -->
  <title
     id="title2549">Group</title>
  <desc
     id="desc2551">Created with Sketch.</desc>
  <g
     id="g2602">
    <path
       d="m 306.4547,198.1875 c -19.24675,0 -36.43109,-3.43747 -51.55353,-10.3125 -15.12245,-6.87503 -31.20699,-16.36244 -48.25411,-28.4625 -12.09796,-8.25004 -21.44624,-14.16248 -28.04513,-17.7375 -6.59888,-3.57502 -13.47262,-5.3625 -20.62141,-5.3625 -12.09796,0 -21.99614,4.53745 -29.69484,13.6125 -7.6987,9.07504 -11.82294,21.86242 -12.37285,38.3625 H 2.082618 C 2.6325252,131.63722 15.967573,87.087662 42.088163,54.6375 68.208752,22.187338 101.89006,5.9625 143.1331,5.9625 c 19.24675,0 36.43109,3.4374656 51.55353,10.3125 15.12245,6.875034 31.20699,16.362439 48.25412,28.4625 12.09795,8.250041 21.44624,14.162482 28.04512,17.7375 6.59889,3.575018 13.47262,5.3625 20.62142,5.3625 12.09795,0 21.99613,-4.537455 29.69483,-13.6125 7.6987,-9.075045 11.82294,-21.862418 12.37285,-38.3625 h 113.83021 c -0.54991,56.650283 -13.88495,101.19984 -40.00554,133.65 -26.12059,32.45016 -59.8019,48.675 -101.04494,48.675 z m 0,343.75 c -19.24675,0 -36.43109,-3.43747 -51.55353,-10.3125 -15.12245,-6.87503 -31.20699,-16.36244 -48.25411,-28.4625 -12.09796,-8.25004 -21.44624,-14.16248 -28.04513,-17.7375 -6.59888,-3.57502 -13.47262,-5.3625 -20.62141,-5.3625 -12.09796,0 -21.99614,4.53746 -29.69484,13.6125 -7.6987,9.07504 -11.82294,21.86242 -12.37285,38.3625 H 2.082618 c 0.5499072,-56.65028 13.884955,-101.19984 40.005545,-133.65 26.120589,-32.45016 59.801897,-48.675 101.044937,-48.675 19.24675,0 36.43109,3.43747 51.55353,10.3125 15.12245,6.87503 31.20699,16.36244 48.25412,28.4625 12.09795,8.25004 21.44624,14.16248 28.04512,17.7375 6.59889,3.57502 13.47262,5.3625 20.62142,5.3625 12.09795,0 21.99613,-4.53746 29.69483,-13.6125 7.6987,-9.07505 11.82294,-21.86242 12.37285,-38.3625 h 113.83021 c -0.54991,56.65028 -13.88495,101.19984 -40.00554,133.65 -26.12059,32.45016 -59.8019,48.675 -101.04494,48.675 z"
       id="~-~"
       inkscape:connector-curvature="0"
       style="fill:#f5c300;fill-rule:evenodd;stroke:#000000;stroke-width:4.125" />
    <path
       d="m 361.4547,198.1875 c -19.24675,0 -36.43109,-3.43747 -51.55353,-10.3125 -15.12245,-6.87503 -31.20699,-16.36244 -48.25412,-28.4625 -12.09795,-8.25004 -21.44623,-14.16248 -28.04512,-17.7375 -6.59889,-3.57502 -13.47262,-5.3625 -20.62141,-5.3625 -12.09796,0 -21.99614,4.53745 -29.69484,13.6125 -7.6987,9.07504 -11.82294,21.86242 -12.37285,38.3625 H 57.082618 C 57.632525,131.63722 70.967573,87.087662 97.088163,54.6375 123.20875,22.187338 156.89006,5.9625 198.1331,5.9625 c 19.24675,0 36.43109,3.4374656 51.55353,10.3125 15.12245,6.875034 31.20699,16.362439 48.25412,28.4625 12.09795,8.250041 21.44623,14.162482 28.04512,17.7375 6.59888,3.575018 13.47262,5.3625 20.62141,5.3625 12.09796,0 21.99614,-4.537455 29.69484,-13.6125 7.6987,-9.075045 11.82294,-21.862418 12.37285,-38.3625 h 113.83021 c -0.54991,56.650283 -13.88496,101.19984 -40.00554,133.65 -26.12059,32.45016 -59.8019,48.675 -101.04494,48.675 z m 0,343.75 c -19.24675,0 -36.43109,-3.43747 -51.55353,-10.3125 -15.12245,-6.87503 -31.20699,-16.36244 -48.25412,-28.4625 -12.09795,-8.25004 -21.44623,-14.16248 -28.04512,-17.7375 -6.59889,-3.57502 -13.47262,-5.3625 -20.62141,-5.3625 -12.09796,0 -21.99614,4.53746 -29.69484,13.6125 -7.6987,9.07504 -11.82294,21.86242 -12.37285,38.3625 H 57.082618 c 0.549907,-56.65028 13.884955,-101.19984 40.005545,-133.65 26.120587,-32.45016 59.801897,-48.675 101.044937,-48.675 19.24675,0 36.43109,3.43747 51.55353,10.3125 15.12245,6.87503 31.20699,16.36244 48.25412,28.4625 12.09795,8.25004 21.44623,14.16248 28.04512,17.7375 6.59888,3.57502 13.47262,5.3625 20.62141,5.3625 12.09796,0 21.99614,-4.53746 29.69484,-13.6125 7.6987,-9.07505 11.82294,-21.86242 12.37285,-38.3625 h 113.83021 c -0.54991,56.65028 -13.88496,101.19984 -40.00554,133.65 -26.12059,32.45016 -59.8019,48.675 -101.04494,48.675 z"
       id="path2554"
       inkscape:connector-curvature="0"
       style="fill:#ef4b5f;fill-rule:evenodd;stroke:#000000;stroke-width:4.125" />
    <path
       d="m 416.4547,198.1875 c -19.24675,0 -36.43109,-3.43747 -51.55354,-10.3125 -15.12244,-6.87503 -31.20698,-16.36244 -48.25411,-28.4625 -12.09795,-8.25004 -21.44623,-14.16248 -28.04512,-17.7375 -6.59889,-3.57502 -13.47262,-5.3625 -20.62142,-5.3625 -12.09795,0 -21.99613,4.53745 -29.69483,13.6125 -7.6987,9.07504 -11.82294,21.86242 -12.37285,38.3625 H 112.08262 c 0.54991,-56.65028 13.88495,-101.199838 40.00554,-133.65 26.12059,-32.450162 59.8019,-48.675 101.04494,-48.675 19.24675,0 36.43109,3.4374656 51.55353,10.3125 15.12245,6.875034 31.20699,16.362439 48.25411,28.4625 12.09796,8.250041 21.44624,14.162482 28.04513,17.7375 6.59888,3.575018 13.47262,5.3625 20.62141,5.3625 12.09796,0 21.99614,-4.537455 29.69484,-13.6125 7.6987,-9.075045 11.82294,-21.862418 12.37285,-38.3625 h 113.83021 c -0.54991,56.650283 -13.88495,101.19984 -40.00554,133.65 -26.12059,32.45016 -59.8019,48.675 -101.04494,48.675 z m 0,343.75 c -19.24675,0 -36.43109,-3.43747 -51.55354,-10.3125 -15.12244,-6.87503 -31.20698,-16.36244 -48.25411,-28.4625 -12.09795,-8.25004 -21.44623,-14.16248 -28.04512,-17.7375 -6.59889,-3.57502 -13.47262,-5.3625 -20.62142,-5.3625 -12.09795,0 -21.99613,4.53746 -29.69483,13.6125 -7.6987,9.07504 -11.82294,21.86242 -12.37285,38.3625 H 112.08262 c 0.54991,-56.65028 13.88495,-101.19984 40.00554,-133.65 26.12059,-32.45016 59.8019,-48.675 101.04494,-48.675 19.24675,0 36.43109,3.43747 51.55353,10.3125 15.12245,6.87503 31.20699,16.36244 48.25411,28.4625 12.09796,8.25004 21.44624,14.16248 28.04513,17.7375 6.59888,3.57502 13.47262,5.3625 20.62141,5.3625 12.09796,0 21.99614,-4.53746 29.69484,-13.6125 7.6987,-9.07505 11.82294,-21.86242 12.37285,-38.3625 h 113.83021 c -0.54991,56.65028 -13.88495,101.19984 -40.00554,133.65 -26.12059,32.45016 -59.8019,48.675 -101.04494,48.675 z"
       id="path2556"
       inkscape:connector-curvature="0"
       style="fill:#ffffff;fill-rule:evenodd;stroke:#000000;stroke-width:4.125" />
    <path
       d="m 471.4547,198.1875 c -19.24675,0 -36.43109,-3.43747 -51.55354,-10.3125 -15.12244,-6.87503 -31.20698,-16.36244 -48.25411,-28.4625 -12.09795,-8.25004 -21.44623,-14.16248 -28.04512,-17.7375 -6.59889,-3.57502 -13.47262,-5.3625 -20.62141,-5.3625 -12.09796,0 -21.99614,4.53745 -29.69484,13.6125 -7.6987,9.07504 -11.82294,21.86242 -12.37285,38.3625 H 167.08262 c 0.5499,-56.65028 13.88495,-101.199838 40.00554,-133.65 26.12059,-32.450162 59.8019,-48.675 101.04494,-48.675 19.24675,0 36.43109,3.4374656 51.55353,10.3125 15.12245,6.875034 31.20699,16.362439 48.25411,28.4625 12.09796,8.250041 21.44624,14.162482 28.04513,17.7375 6.59889,3.575018 13.47262,5.3625 20.62141,5.3625 12.09796,0 21.99614,-4.537455 29.69484,-13.6125 7.6987,-9.075045 11.82294,-21.862418 12.37285,-38.3625 h 113.83021 c -0.54991,56.650283 -13.88495,101.19984 -40.00554,133.65 -26.12059,32.45016 -59.8019,48.675 -101.04494,48.675 z m 0,343.75 c -19.24675,0 -36.43109,-3.43747 -51.55354,-10.3125 -15.12244,-6.87503 -31.20698,-16.36244 -48.25411,-28.4625 -12.09795,-8.25004 -21.44623,-14.16248 -28.04512,-17.7375 -6.59889,-3.57502 -13.47262,-5.3625 -20.62141,-5.3625 -12.09796,0 -21.99614,4.53746 -29.69484,13.6125 -7.6987,9.07504 -11.82294,21.86242 -12.37285,38.3625 H 167.08262 c 0.5499,-56.65028 13.88495,-101.19984 40.00554,-133.65 26.12059,-32.45016 59.8019,-48.675 101.04494,-48.675 19.24675,0 36.43109,3.43747 51.55353,10.3125 15.12245,6.87503 31.20699,16.36244 48.25411,28.4625 12.09796,8.25004 21.44624,14.16248 28.04513,17.7375 6.59889,3.57502 13.47262,5.3625 20.62141,5.3625 12.09796,0 21.99614,-4.53746 29.69484,-13.6125 7.6987,-9.07505 11.82294,-21.86242 12.37285,-38.3625 h 113.83021 c -0.54991,56.65028 -13.88495,101.19984 -40.00554,133.65 -26.12059,32.45016 -59.8019,48.675 -101.04494,48.675 z"
       id="path2558"
       inkscape:connector-curvature="0"
       style="fill:#11aeff;fill-rule:evenodd;stroke:#000000;stroke-width:4.125" />
    <path
       d="m 526.4547,198.1875 c -19.24675,0 -36.43109,-3.43747 -51.55353,-10.3125 -15.12245,-6.87503 -31.20699,-16.36244 -48.25412,-28.4625 -12.09795,-8.25004 -21.44623,-14.16248 -28.04512,-17.7375 -6.59889,-3.57502 -13.47262,-5.3625 -20.62142,-5.3625 -12.09795,0 -21.99613,4.53745 -29.69483,13.6125 -7.6987,9.07504 -11.82294,21.86242 -12.37285,38.3625 H 222.08262 c 0.54991,-56.65028 13.88495,-101.199838 40.00554,-133.65 26.12059,-32.450162 59.8019,-48.675 101.04494,-48.675 19.24675,0 36.43109,3.4374656 51.55353,10.3125 15.12245,6.875034 31.20699,16.362439 48.25411,28.4625 12.09796,8.250041 21.44624,14.162482 28.04513,17.7375 6.59888,3.575018 13.47262,5.3625 20.62141,5.3625 12.09796,0 21.99614,-4.537455 29.69484,-13.6125 7.6987,-9.075045 11.82294,-21.862418 12.37285,-38.3625 h 113.83021 c -0.54991,56.650283 -13.88496,101.19984 -40.00555,133.65 -26.12058,32.45016 -59.80189,48.675 -101.04493,48.675 z m 0,343.75 c -19.24675,0 -36.43109,-3.43747 -51.55353,-10.3125 -15.12245,-6.87503 -31.20699,-16.36244 -48.25412,-28.4625 -12.09795,-8.25004 -21.44623,-14.16248 -28.04512,-17.7375 -6.59889,-3.57502 -13.47262,-5.3625 -20.62142,-5.3625 -12.09795,0 -21.99613,4.53746 -29.69483,13.6125 -7.6987,9.07504 -11.82294,21.86242 -12.37285,38.3625 H 222.08262 c 0.54991,-56.65028 13.88495,-101.19984 40.00554,-133.65 26.12059,-32.45016 59.8019,-48.675 101.04494,-48.675 19.24675,0 36.43109,3.43747 51.55353,10.3125 15.12245,6.87503 31.20699,16.36244 48.25411,28.4625 12.09796,8.25004 21.44624,14.16248 28.04513,17.7375 6.59888,3.57502 13.47262,5.3625 20.62141,5.3625 12.09796,0 21.99614,-4.53746 29.69484,-13.6125 7.6987,-9.07505 11.82294,-21.86242 12.37285,-38.3625 h 113.83021 c -0.54991,56.65028 -13.88496,101.19984 -40.00555,133.65 -26.12058,32.45016 -59.80189,48.675 -101.04493,48.675 z"
       id="path2560"
       inkscape:connector-curvature="0"
       style="fill:#6478d3;fill-rule:evenodd;stroke:#000000;stroke-width:4.125" />
    <path
       d="m 581.4547,198.1875 c -19.24675,0 -36.43109,-3.43747 -51.55354,-10.3125 -15.12244,-6.87503 -31.20699,-16.36244 -48.25411,-28.4625 -12.09795,-8.25004 -21.44624,-14.16248 -28.04512,-17.7375 -6.59889,-3.57502 -13.47262,-5.3625 -20.62142,-5.3625 -12.09795,0 -21.99613,4.53745 -29.69483,13.6125 -7.6987,9.07504 -11.82294,21.86242 -12.37285,38.3625 H 277.08262 c 0.5499,-56.65028 13.88495,-101.199838 40.00554,-133.65 26.12059,-32.450162 59.8019,-48.675 101.04494,-48.675 19.24675,0 36.43109,3.4374656 51.55353,10.3125 15.12245,6.875034 31.20699,16.362439 48.25411,28.4625 12.09796,8.250041 21.44624,14.162482 28.04513,17.7375 6.59888,3.575018 13.47262,5.3625 20.62141,5.3625 12.09796,0 21.99614,-4.537455 29.69484,-13.6125 7.6987,-9.075045 11.82294,-21.862418 12.37285,-38.3625 h 113.83021 c -0.54991,56.650283 -13.88496,101.19984 -40.00554,133.65 -26.12059,32.45016 -59.8019,48.675 -101.04494,48.675 z m 0,343.75 c -19.24675,0 -36.43109,-3.43747 -51.55354,-10.3125 -15.12244,-6.87503 -31.20699,-16.36244 -48.25411,-28.4625 -12.09795,-8.25004 -21.44624,-14.16248 -28.04512,-17.7375 -6.59889,-3.57502 -13.47262,-5.3625 -20.62142,-5.3625 -12.09795,0 -21.99613,4.53746 -29.69483,13.6125 -7.6987,9.07504 -11.82294,21.86242 -12.37285,38.3625 H 277.08262 c 0.5499,-56.65028 13.88495,-101.19984 40.00554,-133.65 26.12059,-32.45016 59.8019,-48.675 101.04494,-48.675 19.24675,0 36.43109,3.43747 51.55353,10.3125 15.12245,6.87503 31.20699,16.36244 48.25411,28.4625 12.09796,8.25004 21.44624,14.16248 28.04513,17.7375 6.59888,3.57502 13.47262,5.3625 20.62141,5.3625 12.09796,0 21.99614,-4.53746 29.69484,-13.6125 7.6987,-9.07505 11.82294,-21.86242 12.37285,-38.3625 h 113.83021 c -0.54991,56.65028 -13.88496,101.19984 -40.00554,133.65 -26.12059,32.45016 -59.8019,48.675 -101.04494,48.675 z"
       id="path2562"
       inkscape:connector-curvature="0"
       style="fill:#51dc8e;fill-rule:evenodd;stroke:#000000;stroke-width:4.125" />
  </g>
</svg>
