<svg width="21" height="21" xmlns="http://www.w3.org/2000/svg">
  <path d="M10.593 9.992c.327 0 .584.254.584.577a.575.575 0 0 1-.584.577.575.575 0 0 1-.583-.577c0-.323.257-.577.583-.577zm-3.266 0c.326 0 .583.254.583.577a.575.575 0 0 1-.583.577.575.575 0 0 1-.584-.577c0-.323.257-.577.584-.577zm1.633-3c.327 0 .583.254.583.577a.575.575 0 0 1-.583.577.575.575 0 0 1-.583-.577c0-.323.256-.577.583-.577zm3.267 0c.326 0 .583.254.583.577a.575.575 0 0 1-.583.577.575.575 0 0 1-.584-.577c0-.323.257-.577.584-.577zm1.633 3c.327 0 .583.254.583.577a.575.575 0 0 1-.583.577.575.575 0 0 1-.583-.577c0-.323.256-.577.583-.577zm-4.9 2.77c.327 0 .583.253.583.576a.575.575 0 0 1-.583.577.575.575 0 0 1-.583-.577c0-.323.256-.576.583-.576zm3.267 0c.326 0 .583.253.583.576a.575.575 0 0 1-.583.577.575.575 0 0 1-.584-.577c0-.323.257-.576.584-.576zM8.96 3.53c.327 0 .583.254.583.577a.575.575 0 0 1-.583.577.575.575 0 0 1-.583-.577c0-.323.256-.577.583-.577zm3.267 0c.326 0 .583.254.583.577a.575.575 0 0 1-.583.577.575.575 0 0 1-.584-.577c0-.323.257-.577.584-.577zm3.033 1.615c.327 0 .583.254.583.577a.575.575 0 0 1-.583.577.575.575 0 0 1-.583-.577c0-.323.256-.577.583-.577zm1.633 3c.327 0 .584.254.584.577a.575.575 0 0 1-.584.577.575.575 0 0 1-.583-.577c0-.323.257-.577.583-.577zm0 3.462c.327 0 .584.254.584.577a.575.575 0 0 1-.584.577.575.575 0 0 1-.583-.577c0-.323.257-.577.583-.577zm-1.633 3c.327 0 .583.254.583.577a.575.575 0 0 1-.583.577.575.575 0 0 1-.583-.577c0-.323.256-.577.583-.577zm-3.033 1.615c.326 0 .583.254.583.577a.575.575 0 0 1-.583.577.575.575 0 0 1-.584-.577c0-.323.257-.577.584-.577zm-3.267 0c.327 0 .583.254.583.577a.575.575 0 0 1-.583.577.575.575 0 0 1-.583-.577c0-.323.256-.577.583-.577zm-3.033-1.615c.326 0 .583.254.583.577a.575.575 0 0 1-.583.577.575.575 0 0 1-.584-.577c0-.323.257-.577.584-.577zm-1.634-3c.327 0 .584.254.584.577a.575.575 0 0 1-.584.577.575.575 0 0 1-.583-.577c0-.323.257-.577.583-.577zm0-3.462c.327 0 .584.254.584.577a.575.575 0 0 1-.584.577.575.575 0 0 1-.583-.577c0-.323.257-.577.583-.577zm1.634-3c.326 0 .583.254.583.577a.575.575 0 0 1-.583.577.575.575 0 0 1-.584-.577c0-.323.257-.577.584-.577zM10.593.07c.327 0 .584.254.584.577a.575.575 0 0 1-.584.577.575.575 0 0 1-.583-.577c0-.323.257-.577.583-.577zm3.5.693c.327 0 .584.253.584.576a.575.575 0 0 1-.584.577.575.575 0 0 1-.583-.577c0-.323.257-.576.583-.576zm2.8 1.615c.327 0 .584.254.584.577a.575.575 0 0 1-.584.577.575.575 0 0 1-.583-.577c0-.323.257-.577.583-.577zm2.334 2.77c.326 0 .583.253.583.576a.575.575 0 0 1-.583.577.575.575 0 0 1-.584-.577c0-.323.257-.577.584-.577zm1.166 3c.327 0 .584.253.584.576a.575.575 0 0 1-.584.577.575.575 0 0 1-.583-.577c0-.323.257-.577.583-.577zm0 3.46c.327 0 .584.255.584.578a.575.575 0 0 1-.584.577.575.575 0 0 1-.583-.577c0-.323.257-.577.583-.577zm-1.166 3.231c.326 0 .583.254.583.577a.575.575 0 0 1-.583.577.575.575 0 0 1-.584-.577c0-.323.257-.577.584-.577zm-2.334 2.539c.327 0 .584.254.584.577a.575.575 0 0 1-.584.577.575.575 0 0 1-.583-.577c0-.323.257-.577.583-.577zm-3.033 1.846c.327 0 .583.254.583.577a.575.575 0 0 1-.583.577.575.575 0 0 1-.583-.577c0-.323.256-.577.583-.577zm-3.267.462c.327 0 .584.253.584.577a.575.575 0 0 1-.584.576.575.575 0 0 1-.583-.576c0-.324.257-.577.583-.577zm-3.266-.462c.326 0 .583.254.583.577a.575.575 0 0 1-.583.577.575.575 0 0 1-.584-.577c0-.323.257-.577.584-.577zm-3.034-1.846c.327 0 .584.254.584.577a.575.575 0 0 1-.584.577.575.575 0 0 1-.583-.577c0-.323.257-.577.583-.577zm-2.1-2.539c.327 0 .584.254.584.577a.575.575 0 0 1-.584.577.575.575 0 0 1-.583-.577c0-.323.257-.577.583-.577zm-1.4-3.23c.327 0 .584.254.584.577a.575.575 0 0 1-.584.577.575.575 0 0 1-.583-.577c0-.323.257-.577.583-.577zm0-3.462c.327 0 .584.254.584.577a.575.575 0 0 1-.584.577.575.575 0 0 1-.583-.577c0-.323.257-.577.583-.577zm1.4-3c.327 0 .584.254.584.577a.575.575 0 0 1-.584.577.575.575 0 0 1-.583-.577c0-.323.257-.577.583-.577zm2.1-2.77c.327 0 .584.255.584.578a.575.575 0 0 1-.584.577.575.575 0 0 1-.583-.577c0-.323.257-.577.583-.577zM7.327.763c.326 0 .583.253.583.576a.575.575 0 0 1-.583.577.575.575 0 0 1-.584-.577c0-.323.257-.576.584-.576z" fill="#137EFF" fill-rule="nonzero"/>
</svg>